<?xml version="1.0" encoding="UTF-8" standalone="no"?>
<svg id="ExportContainer_SVG" width="900" height="600" viewBox="0 0 900 600" xmlns="http://www.w3.org/2000/svg" xmlns:xlink="http://www.w3.org/1999/xlink" version="2.0" style="font-size:10px;font-family:Calibri,Verdana,Arial,sans-serif"><defs><rect id="rect0" x="4" y="4" width="76.27028684755506" height="63.973082111970726"/><rect id="rect1" x="4" y="73.97308211197073" width="76.27028684755507" height="118.19704305247443"/><rect id="rect2" x="4" y="194.17012516444515" width="76.27028684755506" height="65.8154702204913"/><rect id="rect3" x="4" y="261.98559538493646" width="76.27028684755506" height="101.71740818342215"/><rect id="rect4" x="4" y="365.7030035683586" width="76.27028684755506" height="81.96077183444794"/><rect id="rect5" x="4" y="449.66377540280655" width="76.27028684755503" height="53.432998594678736"/><rect id="rect6" x="4" y="505.0967739974853" width="76.27028684755506" height="90.90322600251437"/><rect id="rect7" x="86.27028684755506" y="4" width="124.7957130219675" height="118.4026228449765"/><rect id="rect8" x="86.27028684755506" y="124.4026228449765" width="124.7957130219675" height="114.59398141966547"/><rect id="rect9" x="86.27028684755506" y="240.99660426464197" width="124.7957130219675" height="51.41865937823741"/><rect id="rect10" x="86.27028684755506" y="294.4152636428794" width="124.7957130219675" height="39.299998695885904"/><rect id="rect11" x="86.27028684755506" y="335.7152623387653" width="124.7957130219675" height="43.992623570349394"/><rect id="rect12" x="86.27028684755506" y="381.7078859091147" width="124.7957130219675" height="75.72787138656315"/><rect id="rect13" x="213.06599986952256" y="4" width="60.49492681545286" height="109.9463552352581"/><rect id="rect14" x="275.5609266849754" y="4" width="121.55855997096108" height="109.9463552352581"/><rect id="rect15" x="399.1194866559365" y="4" width="89.95477694786968" height="109.9463552352581"/><rect id="rect16" x="491.0742636038062" y="4" width="51.55737555283582" height="109.9463552352581"/><rect id="rect17" x="213.06599986952256" y="115.9463552352581" width="50.567413458715805" height="84.47080150266379"/><rect id="rect18" x="265.63341332823836" y="115.9463552352581" width="59.5721803824452" height="84.47080150266379"/><rect id="rect19" x="327.20559371068356" y="115.9463552352581" width="49.29335202003375" height="84.47080150266379"/><rect id="rect20" x="378.4989457307173" y="115.9463552352581" width="78.66011998694171" height="84.47080150266379"/><rect id="rect21" x="459.159065717659" y="115.9463552352581" width="83.47257343898298" height="84.47080150266379"/><rect id="rect22" x="213.06599986952256" y="202.41715673792189" width="107.4528339043876" height="97.05569410698254"/><rect id="rect23" x="213.06599986952256" y="301.4728508449044" width="107.4528339043876" height="69.66780958917576"/><rect id="rect24" x="213.06599986952256" y="373.1406604340802" width="107.4528339043876" height="39.88127677894602"/><rect id="rect25" x="213.06599986952256" y="415.0219372130262" width="107.4528339043876" height="42.413820082651625"/><rect id="rect26" x="322.51883377391016" y="202.41715673792189" width="52.02002060955516" height="90.4267444388237"/><rect id="rect27" x="376.5388543834653" y="202.41715673792189" width="64.08473550524621" height="90.4267444388237"/><rect id="rect28" x="442.62358988871154" y="202.41715673792189" width="45.9880286583753" height="90.4267444388237"/><rect id="rect29" x="490.61161854708683" y="202.41715673792189" width="52.02002060955516" height="90.4267444388237"/><rect id="rect30" x="322.51883377391016" y="294.8439011767456" width="100.06331540471962" height="42.536534568490765"/><rect id="rect31" x="322.51883377391016" y="339.38043574523635" width="100.06331540471962" height="66.5464630454345"/><rect id="rect32" x="322.51883377391016" y="407.92689879067086" width="100.06331540471962" height="49.50885850500697"/><rect id="rect33" x="424.5821491786298" y="294.8439011767456" width="42.23403131026845" height="100.09068742366208"/><rect id="rect34" x="468.8161804888982" y="294.8439011767456" width="73.81545866774377" height="100.09068742366208"/><rect id="rect35" x="424.5821491786298" y="396.93458860040766" width="118.04948997801233" height="60.50116869527017"/><rect id="rect36" x="86.27028684755506" y="463.43575729567783" width="96.47660598710176" height="80.26508530780927"/><rect id="rect37" x="86.27028684755506" y="545.7008426034871" width="96.47660598710176" height="50.299157396512896"/><rect id="rect38" x="184.74689283465682" y="463.43575729567783" width="76.21949982133788" height="75.32041308333282"/><rect id="rect39" x="184.74689283465682" y="540.7561703790107" width="76.21949982133788" height="55.243829620989345"/><rect id="rect40" x="262.9663926559947" y="463.43575729567783" width="96.35395071774269" height="56.858763397072266"/><rect id="rect41" x="262.9663926559947" y="522.2945206927501" width="96.35395071774269" height="73.7054793072499"/><rect id="rect42" x="361.3203433737374" y="463.43575729567783" width="73.6059321974555" height="74.46556766059507"/><rect id="rect43" x="361.3203433737374" y="539.9013249562729" width="73.6059321974555" height="56.0986750437271"/><rect id="rect44" x="436.9262755711929" y="463.43575729567783" width="45.321542565606364" height="91.48887264735606"/><rect id="rect45" x="484.24781813679925" y="463.43575729567783" width="58.38382101984274" height="91.48887264735606"/><rect id="rect46" x="436.9262755711929" y="556.9246299430339" width="105.70536358544945" height="39.07537005696611"/><rect id="rect47" x="548.631639156642" y="4" width="51.8282335117982" height="73.46464069013992"/><rect id="rect48" x="606.4598726684402" y="4" width="80.427486855462" height="73.46464069013993"/><rect id="rect49" x="688.8873595239022" y="4" width="54.75973922297544" height="73.46464069013992"/><rect id="rect50" x="745.6470987468776" y="4" width="71.29772519073867" height="73.46464069013989"/><rect id="rect51" x="822.9448239376163" y="4" width="73.05517606238345" height="73.46464069013992"/><rect id="rect52" x="548.631639156642" y="83.46464069013992" width="172.92042152974068" height="125.77934296863013"/><rect id="rect53" x="723.5520606863827" y="83.46464069013992" width="33.44696068222504" height="125.77934296863013"/><rect id="rect54" x="758.9990213686077" y="83.46464069013992" width="53.78905905549675" height="125.77934296863013"/><rect id="rect55" x="814.7880804241045" y="83.46464069013992" width="40.246105924491644" height="125.77934296863013"/><rect id="rect56" x="857.0341863485961" y="83.46464069013992" width="38.96581365140378" height="125.77934296863013"/><rect id="rect57" x="548.631639156642" y="211.24398365877005" width="37.362005671497855" height="118.65761544106294"/><rect id="rect58" x="587.9936448281398" y="211.24398365877005" width="49.210122066314284" height="118.65761544106294"/><rect id="rect59" x="639.2037668944541" y="211.24398365877005" width="109.9597533372314" height="118.65761544106294"/><rect id="rect60" x="751.1635202316855" y="211.24398365877005" width="96.3176781760892" height="118.65761544106294"/><rect id="rect61" x="849.4811984077747" y="211.24398365877005" width="46.51880159222526" height="118.65761544106294"/><rect id="rect62" x="548.631639156642" y="331.901599099833" width="106.26355104583672" height="46.44832657992083"/><rect id="rect63" x="548.631639156642" y="380.3499256797538" width="106.26355104583672" height="67.45053655296243"/><rect id="rect64" x="548.631639156642" y="449.80046223271626" width="106.26355104583672" height="51.74275648711301"/><rect id="rect65" x="548.631639156642" y="503.54321871982927" width="106.26355104583672" height="56.11804770194783"/><rect id="rect66" x="656.8951902024787" y="331.901599099833" width="97.72612696411352" height="66.67034999004949"/><rect id="rect67" x="656.8951902024787" y="400.5719490898825" width="97.72612696411352" height="61.43744173654727"/><rect id="rect68" x="656.8951902024787" y="464.00939082642975" width="97.72612696411352" height="49.45086335806894"/><rect id="rect69" x="656.8951902024787" y="515.4602541844987" width="97.72612696411352" height="44.201012237278405"/><rect id="rect70" x="756.6213171665922" y="331.901599099833" width="44.87695134515741" height="92.73375417489001"/><rect id="rect71" x="803.4982685117496" y="331.901599099833" width="92.50173148825036" height="92.73375417489001"/><rect id="rect72" x="756.6213171665922" y="426.635353274723" width="73.599683822114" height="63.64483094421655"/><rect id="rect73" x="756.6213171665922" y="492.28018421893955" width="73.599683822114" height="67.38108220283755"/><rect id="rect74" x="832.2210009887062" y="426.635353274723" width="63.77899901129376" height="66.49594162156535"/><rect id="rect75" x="832.2210009887062" y="495.13129489628835" width="63.77899901129376" height="64.52997152548875"/><rect id="rect76" x="548.631639156642" y="565.6612664217771" width="120.4573457924364" height="30.3387335782229"/><rect id="rect77" x="675.0889849490784" y="565.6612664217771" width="220.91101505092263" height="30.3387335782229"/></defs><g><g id="ExportContainer_Group_GO0005975"><rect x="3" y="3" width="78.27028684755506" height="65.97308211197073" rx="2" style="stroke: gainsboro; fill: white;"/><g><rect x="4" y="4" width="76.27028684755506" height="63.973082111970726" rx="2" style="fill: crimson;"/><text fill="white" x="4" y="4" style="shape-inside: url(#rect0); text-align: center;">(GO0005975, representative) carbohydrate metabolic process</text></g></g><g id="ExportContainer_Group_GO0006090"><rect x="3" y="72.97308211197073" width="78.27028684755506" height="524.026917888029" rx="2" style="stroke: gainsboro; fill: white;"/><g><rect x="4" y="73.97308211197073" width="76.27028684755507" height="118.19704305247443" rx="2" style="fill: lightseagreen;"/><text fill="white" x="4" y="73.97308211197073" style="shape-inside: url(#rect1); text-align: center;">(GO0006090, representative) pyruvate metabolic process</text></g><g><rect x="4" y="194.17012516444515" width="76.27028684755506" height="65.8154702204913" rx="2" style="fill: lightseagreen;"/><text fill="white" x="4" y="194.17012516444515" style="shape-inside: url(#rect2); text-align: center;">(GO0000050) urea cycle</text></g><g><rect x="4" y="261.98559538493646" width="76.27028684755506" height="101.71740818342215" rx="2" style="fill: lightseagreen;"/><text fill="white" x="4" y="261.98559538493646" style="shape-inside: url(#rect3); text-align: center;">(GO0006096) glycolytic process</text></g><g><rect x="4" y="365.7030035683586" width="76.27028684755506" height="81.96077183444794" rx="2" style="fill: lightseagreen;"/><text fill="white" x="4" y="365.7030035683586" style="shape-inside: url(#rect4); text-align: center;">(GO0006730) one-carbon metabolic process</text></g><g><rect x="4" y="449.66377540280655" width="76.27028684755503" height="53.432998594678736" rx="2" style="fill: lightseagreen;"/><text fill="white" x="4" y="449.66377540280655" style="shape-inside: url(#rect5); text-align: center;">(GO0018894) dibenzo-p-dioxin metabolic process</text></g><g><rect x="4" y="505.0967739974853" width="76.27028684755506" height="90.90322600251437" rx="2" style="fill: lightseagreen;"/><text fill="white" x="4" y="505.0967739974853" style="shape-inside: url(#rect6); text-align: center;">(GO0019752) carboxylic acid metabolic process</text></g></g><g id="ExportContainer_Group_GO0006694"><rect x="85.27028684755506" y="3" width="458.36135230908695" height="455.43575729567783" rx="2" style="stroke: gainsboro; fill: white;"/><g><rect x="86.27028684755506" y="4" width="124.7957130219675" height="118.4026228449765" rx="2" style="fill: tomato;"/><text fill="white" x="86.27028684755506" y="4" style="shape-inside: url(#rect7); text-align: center;">(GO0006694, representative) steroid biosynthetic process</text></g><g><rect x="86.27028684755506" y="124.4026228449765" width="124.7957130219675" height="114.59398141966547" rx="2" style="fill: tomato;"/><text fill="white" x="86.27028684755506" y="124.4026228449765" style="shape-inside: url(#rect8); text-align: center;">(GO0000727) double-strand break repair via break-induced replication</text></g><g><rect x="86.27028684755506" y="240.99660426464197" width="124.7957130219675" height="51.41865937823741" rx="2" style="fill: tomato;"/><text fill="white" x="86.27028684755506" y="240.99660426464197" style="shape-inside: url(#rect9); text-align: center;">(GO0005978) glycogen biosynthetic process</text></g><g><rect x="86.27028684755506" y="294.4152636428794" width="124.7957130219675" height="39.299998695885904" rx="2" style="fill: tomato;"/><text fill="white" x="86.27028684755506" y="294.4152636428794" style="shape-inside: url(#rect10); text-align: center;">(GO0006006) glucose metabolic process</text></g><g><rect x="86.27028684755506" y="335.7152623387653" width="124.7957130219675" height="43.992623570349394" rx="2" style="fill: tomato;"/><text fill="white" x="86.27028684755506" y="335.7152623387653" style="shape-inside: url(#rect11); text-align: center;">(GO0006098) pentose-phosphate shunt</text></g><g><rect x="86.27028684755506" y="381.7078859091147" width="124.7957130219675" height="75.72787138656315" rx="2" style="fill: tomato;"/><text fill="white" x="86.27028684755506" y="381.7078859091147" style="shape-inside: url(#rect12); text-align: center;">(GO0006260) DNA replication</text></g><g><rect x="213.06599986952256" y="4" width="60.49492681545286" height="109.9463552352581" rx="2" style="fill: tomato;"/><text fill="white" x="213.06599986952256" y="4" style="shape-inside: url(#rect13); text-align: center;">(GO0006267) pre-replicative complex assembly involved in nuclear cell cycle DNA replication</text></g><g><rect x="275.5609266849754" y="4" width="121.55855997096108" height="109.9463552352581" rx="2" style="fill: tomato;"/><text fill="white" x="275.5609266849754" y="4" style="shape-inside: url(#rect14); text-align: center;">(GO0006268) DNA unwinding involved in DNA replication</text></g><g><rect x="399.1194866559365" y="4" width="89.95477694786968" height="109.9463552352581" rx="2" style="fill: tomato;"/><text fill="white" x="399.1194866559365" y="4" style="shape-inside: url(#rect15); text-align: center;">(GO0006301) postreplication repair</text></g><g><rect x="491.0742636038062" y="4" width="51.55737555283582" height="109.9463552352581" rx="2" style="fill: tomato;"/><text fill="white" x="491.0742636038062" y="4" style="shape-inside: url(#rect16); text-align: center;">(GO0006354) DNA-templated transcription elongation</text></g><g><rect x="213.06599986952256" y="115.9463552352581" width="50.567413458715805" height="84.47080150266379" rx="2" style="fill: tomato;"/><text fill="white" x="213.06599986952256" y="115.9463552352581" style="shape-inside: url(#rect17); text-align: center;">(GO0006488) dolichol-linked oligosaccharide biosynthetic process</text></g><g><rect x="265.63341332823836" y="115.9463552352581" width="59.5721803824452" height="84.47080150266379" rx="2" style="fill: tomato;"/><text fill="white" x="265.63341332823836" y="115.9463552352581" style="shape-inside: url(#rect18); text-align: center;">(GO0009636) response to toxic substance</text></g><g><rect x="327.20559371068356" y="115.9463552352581" width="49.29335202003375" height="84.47080150266379" rx="2" style="fill: tomato;"/><text fill="white" x="327.20559371068356" y="115.9463552352581" style="shape-inside: url(#rect19); text-align: center;">(GO0009749) response to glucose</text></g><g><rect x="378.4989457307173" y="115.9463552352581" width="78.66011998694171" height="84.47080150266379" rx="2" style="fill: tomato;"/><text fill="white" x="378.4989457307173" y="115.9463552352581" style="shape-inside: url(#rect20); text-align: center;">(GO0016055) Wnt signaling pathway</text></g><g><rect x="459.159065717659" y="115.9463552352581" width="83.47257343898298" height="84.47080150266379" rx="2" style="fill: tomato;"/><text fill="white" x="459.159065717659" y="115.9463552352581" style="shape-inside: url(#rect21); text-align: center;">(GO0030488) tRNA methylation</text></g><g><rect x="213.06599986952256" y="202.41715673792189" width="107.4528339043876" height="97.05569410698254" rx="2" style="fill: tomato;"/><text fill="white" x="213.06599986952256" y="202.41715673792189" style="shape-inside: url(#rect22); text-align: center;">(GO0034198) cellular response to amino acid starvation</text></g><g><rect x="213.06599986952256" y="301.4728508449044" width="107.4528339043876" height="69.66780958917576" rx="2" style="fill: tomato;"/><text fill="white" x="213.06599986952256" y="301.4728508449044" style="shape-inside: url(#rect23); text-align: center;">(GO0036211) protein modification process</text></g><g><rect x="213.06599986952256" y="373.1406604340802" width="107.4528339043876" height="39.88127677894602" rx="2" style="fill: tomato;"/><text fill="white" x="213.06599986952256" y="373.1406604340802" style="shape-inside: url(#rect24); text-align: center;">(GO0042542) response to hydrogen peroxide</text></g><g><rect x="213.06599986952256" y="415.0219372130262" width="107.4528339043876" height="42.413820082651625" rx="2" style="fill: tomato;"/><text fill="white" x="213.06599986952256" y="415.0219372130262" style="shape-inside: url(#rect25); text-align: center;">(GO0043627) response to estrogen</text></g><g><rect x="322.51883377391016" y="202.41715673792189" width="52.02002060955516" height="90.4267444388237" rx="2" style="fill: tomato;"/><text fill="white" x="322.51883377391016" y="202.41715673792189" style="shape-inside: url(#rect26); text-align: center;">(GO0044790) suppression of viral release by host</text></g><g><rect x="376.5388543834653" y="202.41715673792189" width="64.08473550524621" height="90.4267444388237" rx="2" style="fill: tomato;"/><text fill="white" x="376.5388543834653" y="202.41715673792189" style="shape-inside: url(#rect27); text-align: center;">(GO0046835) carbohydrate phosphorylation</text></g><g><rect x="442.62358988871154" y="202.41715673792189" width="45.9880286583753" height="90.4267444388237" rx="2" style="fill: tomato;"/><text fill="white" x="442.62358988871154" y="202.41715673792189" style="shape-inside: url(#rect28); text-align: center;">(GO0051865) protein autoubiquitination</text></g><g><rect x="490.61161854708683" y="202.41715673792189" width="52.02002060955516" height="90.4267444388237" rx="2" style="fill: tomato;"/><text fill="white" x="490.61161854708683" y="202.41715673792189" style="shape-inside: url(#rect29); text-align: center;">(GO0060416) response to growth hormone</text></g><g><rect x="322.51883377391016" y="294.8439011767456" width="100.06331540471962" height="42.536534568490765" rx="2" style="fill: tomato;"/><text fill="white" x="322.51883377391016" y="294.8439011767456" style="shape-inside: url(#rect30); text-align: center;">(GO0061621) canonical glycolysis</text></g><g><rect x="322.51883377391016" y="339.38043574523635" width="100.06331540471962" height="66.5464630454345" rx="2" style="fill: tomato;"/><text fill="white" x="322.51883377391016" y="339.38043574523635" style="shape-inside: url(#rect31); text-align: center;">(GO0071236) cellular response to antibiotic</text></g><g><rect x="322.51883377391016" y="407.92689879067086" width="100.06331540471962" height="49.50885850500697" rx="2" style="fill: tomato;"/><text fill="white" x="322.51883377391016" y="407.92689879067086" style="shape-inside: url(#rect32); text-align: center;">(GO0071264) positive regulation of translational initiation in response to starvation</text></g><g><rect x="424.5821491786298" y="294.8439011767456" width="42.23403131026845" height="100.09068742366208" rx="2" style="fill: tomato;"/><text fill="white" x="424.5821491786298" y="294.8439011767456" style="shape-inside: url(#rect33); text-align: center;">(GO0071400) cellular response to oleic acid</text></g><g><rect x="468.8161804888982" y="294.8439011767456" width="73.81545866774377" height="100.09068742366208" rx="2" style="fill: tomato;"/><text fill="white" x="468.8161804888982" y="294.8439011767456" style="shape-inside: url(#rect34); text-align: center;">(GO0071456) cellular response to hypoxia</text></g><g><rect x="424.5821491786298" y="396.93458860040766" width="118.04948997801233" height="60.50116869527017" rx="2" style="fill: tomato;"/><text fill="white" x="424.5821491786298" y="396.93458860040766" style="shape-inside: url(#rect35); text-align: center;">(GO0071494) cellular response to UV-C</text></g></g><g id="ExportContainer_Group_GO0007566"><rect x="85.27028684755506" y="462.43575729567783" width="458.36135230908695" height="134.56424270432217" rx="2" style="stroke: gainsboro; fill: white;"/><g><rect x="86.27028684755506" y="463.43575729567783" width="96.47660598710176" height="80.26508530780927" rx="2" style="fill: royalblue;"/><text fill="white" x="86.27028684755506" y="463.43575729567783" style="shape-inside: url(#rect36); text-align: center;">(GO0007566, representative) embryo implantation</text></g><g><rect x="86.27028684755506" y="545.7008426034871" width="96.47660598710176" height="50.299157396512896" rx="2" style="fill: royalblue;"/><text fill="white" x="86.27028684755506" y="545.7008426034871" style="shape-inside: url(#rect37); text-align: center;">(GO0002543) activation of blood coagulation via clotting cascade</text></g><g><rect x="184.74689283465682" y="463.43575729567783" width="76.21949982133788" height="75.32041308333282" rx="2" style="fill: royalblue;"/><text fill="white" x="184.74689283465682" y="463.43575729567783" style="shape-inside: url(#rect38); text-align: center;">(GO0003334) keratinocyte development</text></g><g><rect x="184.74689283465682" y="540.7561703790107" width="76.21949982133788" height="55.243829620989345" rx="2" style="fill: royalblue;"/><text fill="white" x="184.74689283465682" y="540.7561703790107" style="shape-inside: url(#rect39); text-align: center;">(GO0007275) multicellular organism development</text></g><g><rect x="262.9663926559947" y="463.43575729567783" width="96.35395071774269" height="56.858763397072266" rx="2" style="fill: royalblue;"/><text fill="white" x="262.9663926559947" y="463.43575729567783" style="shape-inside: url(#rect40); text-align: center;">(GO0007369) gastrulation</text></g><g><rect x="262.9663926559947" y="522.2945206927501" width="96.35395071774269" height="73.7054793072499" rx="2" style="fill: royalblue;"/><text fill="white" x="262.9663926559947" y="522.2945206927501" style="shape-inside: url(#rect41); text-align: center;">(GO0007595) lactation</text></g><g><rect x="361.3203433737374" y="463.43575729567783" width="73.6059321974555" height="74.46556766059507" rx="2" style="fill: royalblue;"/><text fill="white" x="361.3203433737374" y="463.43575729567783" style="shape-inside: url(#rect42); text-align: center;">(GO0030217) T cell differentiation</text></g><g><rect x="361.3203433737374" y="539.9013249562729" width="73.6059321974555" height="56.0986750437271" rx="2" style="fill: royalblue;"/><text fill="white" x="361.3203433737374" y="539.9013249562729" style="shape-inside: url(#rect43); text-align: center;">(GO0042572) retinol metabolic process</text></g><g><rect x="436.9262755711929" y="463.43575729567783" width="45.321542565606364" height="91.48887264735606" rx="2" style="fill: royalblue;"/><text fill="white" x="436.9262755711929" y="463.43575729567783" style="shape-inside: url(#rect44); text-align: center;">(GO0071691) cardiac muscle thin filament assembly</text></g><g><rect x="484.24781813679925" y="463.43575729567783" width="58.38382101984274" height="91.48887264735606" rx="2" style="fill: royalblue;"/><text fill="white" x="484.24781813679925" y="463.43575729567783" style="shape-inside: url(#rect45); text-align: center;">(GO0097009) energy homeostasis</text></g><g><rect x="436.9262755711929" y="556.9246299430339" width="105.70536358544945" height="39.07537005696611" rx="2" style="fill: royalblue;"/><text fill="white" x="436.9262755711929" y="556.9246299430339" style="shape-inside: url(#rect46); text-align: center;">(GO0098903) regulation of membrane repolarization during action potential</text></g></g><g id="ExportContainer_Group_GO0018879"><rect x="547.631639156642" y="3" width="53.8282335117982" height="75.46464069013992" rx="2" style="stroke: gainsboro; fill: white;"/><g><rect x="548.631639156642" y="4" width="51.8282335117982" height="73.46464069013992" rx="2" style="fill: mediumseagreen;"/><text fill="white" x="548.631639156642" y="4" style="shape-inside: url(#rect47); text-align: center;">(GO0018879, representative) biphenyl metabolic process</text></g></g><g id="ExportContainer_Group_GO0030388"><rect x="605.4598726684402" y="3" width="212.48495126917612" height="75.46464069013992" rx="2" style="stroke: gainsboro; fill: white;"/><g><rect x="606.4598726684402" y="4" width="80.427486855462" height="73.46464069013993" rx="2" style="fill: darkorchid;"/><text fill="white" x="606.4598726684402" y="4" style="shape-inside: url(#rect48); text-align: center;">(GO0030388, representative) fructose 1,6-bisphosphate metabolic process</text></g><g><rect x="688.8873595239022" y="4" width="54.75973922297544" height="73.46464069013992" rx="2" style="fill: darkorchid;"/><text fill="white" x="688.8873595239022" y="4" style="shape-inside: url(#rect49); text-align: center;">(GO0009220) pyrimidine ribonucleotide biosynthetic process</text></g><g><rect x="745.6470987468776" y="4" width="71.29772519073867" height="73.46464069013989" rx="2" style="fill: darkorchid;"/><text fill="white" x="745.6470987468776" y="4" style="shape-inside: url(#rect50); text-align: center;">(GO0046940) nucleoside monophosphate phosphorylation</text></g></g><g id="ExportContainer_Group_GO0032060"><rect x="821.9448239376163" y="3" width="75.05517606238345" height="75.46464069013992" rx="2" style="stroke: gainsboro; fill: white;"/><g><rect x="822.9448239376163" y="4" width="73.05517606238345" height="73.46464069013992" rx="2" style="fill: darkorange;"/><text fill="white" x="822.9448239376163" y="4" style="shape-inside: url(#rect51); text-align: center;">(GO0032060, representative) bleb assembly</text></g></g><g id="ExportContainer_Group_GO0045892"><rect x="547.631639156642" y="82.46464069013992" width="349.368360843358" height="478.1966257316372" rx="2" style="stroke: gainsboro; fill: white;"/><g><rect x="548.631639156642" y="83.46464069013992" width="172.92042152974068" height="125.77934296863013" rx="2" style="fill: slateblue;"/><text fill="white" x="548.631639156642" y="83.46464069013992" style="shape-inside: url(#rect52); text-align: center;">(GO0045892, representative) negative regulation of DNA-templated transcription</text></g><g><rect x="723.5520606863827" y="83.46464069013992" width="33.44696068222504" height="125.77934296863013" rx="2" style="fill: slateblue;"/><text fill="white" x="723.5520606863827" y="83.46464069013992" style="shape-inside: url(#rect53); text-align: center;">(GO0006355) regulation of DNA-templated transcription</text></g><g><rect x="758.9990213686077" y="83.46464069013992" width="53.78905905549675" height="125.77934296863013" rx="2" style="fill: slateblue;"/><text fill="white" x="758.9990213686077" y="83.46464069013992" style="shape-inside: url(#rect54); text-align: center;">(GO0006357) regulation of transcription by RNA polymerase II</text></g><g><rect x="814.7880804241045" y="83.46464069013992" width="40.246105924491644" height="125.77934296863013" rx="2" style="fill: slateblue;"/><text fill="white" x="814.7880804241045" y="83.46464069013992" style="shape-inside: url(#rect55); text-align: center;">(GO0006417) regulation of translation</text></g><g><rect x="857.0341863485961" y="83.46464069013992" width="38.96581365140378" height="125.77934296863013" rx="2" style="fill: slateblue;"/><text fill="white" x="857.0341863485961" y="83.46464069013992" style="shape-inside: url(#rect56); text-align: center;">(GO0009048) dosage compensation by inactivation of X chromosome</text></g><g><rect x="548.631639156642" y="211.24398365877005" width="37.362005671497855" height="118.65761544106294" rx="2" style="fill: slateblue;"/><text fill="white" x="548.631639156642" y="211.24398365877005" style="shape-inside: url(#rect57); text-align: center;">(GO0010955) negative regulation of protein processing</text></g><g><rect x="587.9936448281398" y="211.24398365877005" width="49.210122066314284" height="118.65761544106294" rx="2" style="fill: slateblue;"/><text fill="white" x="587.9936448281398" y="211.24398365877005" style="shape-inside: url(#rect58); text-align: center;">(GO0019216) regulation of lipid metabolic process</text></g><g><rect x="639.2037668944541" y="211.24398365877005" width="109.9597533372314" height="118.65761544106294" rx="2" style="fill: slateblue;"/><text fill="white" x="639.2037668944541" y="211.24398365877005" style="shape-inside: url(#rect59); text-align: center;">(GO0030174) regulation of DNA-templated DNA replication initiation</text></g><g><rect x="751.1635202316855" y="211.24398365877005" width="96.3176781760892" height="118.65761544106294" rx="2" style="fill: slateblue;"/><text fill="white" x="751.1635202316855" y="211.24398365877005" style="shape-inside: url(#rect60); text-align: center;">(GO0032922) circadian regulation of gene expression</text></g><g><rect x="849.4811984077747" y="211.24398365877005" width="46.51880159222526" height="118.65761544106294" rx="2" style="fill: slateblue;"/><text fill="white" x="849.4811984077747" y="211.24398365877005" style="shape-inside: url(#rect61); text-align: center;">(GO0040008) regulation of growth</text></g><g><rect x="548.631639156642" y="331.901599099833" width="106.26355104583672" height="46.44832657992083" rx="2" style="fill: slateblue;"/><text fill="white" x="548.631639156642" y="331.901599099833" style="shape-inside: url(#rect62); text-align: center;">(GO0042747) circadian sleep/wake cycle, REM sleep</text></g><g><rect x="548.631639156642" y="380.3499256797538" width="106.26355104583672" height="67.45053655296243" rx="2" style="fill: slateblue;"/><text fill="white" x="548.631639156642" y="380.3499256797538" style="shape-inside: url(#rect63); text-align: center;">(GO0042752) regulation of circadian rhythm</text></g><g><rect x="548.631639156642" y="449.80046223271626" width="106.26355104583672" height="51.74275648711301" rx="2" style="fill: slateblue;"/><text fill="white" x="548.631639156642" y="449.80046223271626" style="shape-inside: url(#rect64); text-align: center;">(GO0042754) negative regulation of circadian rhythm</text></g><g><rect x="548.631639156642" y="503.54321871982927" width="106.26355104583672" height="56.11804770194783" rx="2" style="fill: slateblue;"/><text fill="white" x="548.631639156642" y="503.54321871982927" style="shape-inside: url(#rect65); text-align: center;">(GO0043065) positive regulation of apoptotic process</text></g><g><rect x="656.8951902024787" y="331.901599099833" width="97.72612696411352" height="66.67034999004949" rx="2" style="fill: slateblue;"/><text fill="white" x="656.8951902024787" y="331.901599099833" style="shape-inside: url(#rect66); text-align: center;">(GO0043124) negative regulation of I-kappaB kinase/NF-kappaB signaling</text></g><g><rect x="656.8951902024787" y="400.5719490898825" width="97.72612696411352" height="61.43744173654727" rx="2" style="fill: slateblue;"/><text fill="white" x="656.8951902024787" y="400.5719490898825" style="shape-inside: url(#rect67); text-align: center;">(GO0045786) negative regulation of cell cycle</text></g><g><rect x="656.8951902024787" y="464.00939082642975" width="97.72612696411352" height="49.45086335806894" rx="2" style="fill: slateblue;"/><text fill="white" x="656.8951902024787" y="464.00939082642975" style="shape-inside: url(#rect68); text-align: center;">(GO0045893) positive regulation of DNA-templated transcription</text></g><g><rect x="656.8951902024787" y="515.4602541844987" width="97.72612696411352" height="44.201012237278405" rx="2" style="fill: slateblue;"/><text fill="white" x="656.8951902024787" y="515.4602541844987" style="shape-inside: url(#rect69); text-align: center;">(GO0050769) positive regulation of neurogenesis</text></g><g><rect x="756.6213171665922" y="331.901599099833" width="44.87695134515741" height="92.73375417489001" rx="2" style="fill: slateblue;"/><text fill="white" x="756.6213171665922" y="331.901599099833" style="shape-inside: url(#rect70); text-align: center;">(GO0050790) regulation of catalytic activity</text></g><g><rect x="803.4982685117496" y="331.901599099833" width="92.50173148825036" height="92.73375417489001" rx="2" style="fill: slateblue;"/><text fill="white" x="803.4982685117496" y="331.901599099833" style="shape-inside: url(#rect71); text-align: center;">(GO0051000) positive regulation of nitric-oxide synthase activity</text></g><g><rect x="756.6213171665922" y="426.635353274723" width="73.599683822114" height="63.64483094421655" rx="2" style="fill: slateblue;"/><text fill="white" x="756.6213171665922" y="426.635353274723" style="shape-inside: url(#rect72); text-align: center;">(GO0051092) positive regulation of NF-kappaB transcription factor activity</text></g><g><rect x="756.6213171665922" y="492.28018421893955" width="73.599683822114" height="67.38108220283755" rx="2" style="fill: slateblue;"/><text fill="white" x="756.6213171665922" y="492.28018421893955" style="shape-inside: url(#rect73); text-align: center;">(GO0060051) negative regulation of protein glycosylation</text></g><g><rect x="832.2210009887062" y="426.635353274723" width="63.77899901129376" height="66.49594162156535" rx="2" style="fill: slateblue;"/><text fill="white" x="832.2210009887062" y="426.635353274723" style="shape-inside: url(#rect74); text-align: center;">(GO0070859) positive regulation of bile acid biosynthetic process</text></g><g><rect x="832.2210009887062" y="495.13129489628835" width="63.77899901129376" height="64.52997152548875" rx="2" style="fill: slateblue;"/><text fill="white" x="832.2210009887062" y="495.13129489628835" style="shape-inside: url(#rect75); text-align: center;">(GO1904707) positive regulation of vascular associated smooth muscle cell proliferation</text></g></g><g id="ExportContainer_Group_GO0061577"><rect x="547.631639156642" y="564.6612664217771" width="122.4573457924364" height="32.3387335782229" rx="2" style="stroke: gainsboro; fill: white;"/><g><rect x="548.631639156642" y="565.6612664217771" width="120.4573457924364" height="30.3387335782229" rx="2" style="fill: lightsalmon;"/><text fill="black" x="548.631639156642" y="565.6612664217771" style="shape-inside: url(#rect76); text-align: center;">(GO0061577, representative) calcium ion transmembrane transport via high voltage-gated calcium channel</text></g></g><g id="ExportContainer_Group_GO0097300"><rect x="674.0889849490784" y="564.6612664217771" width="222.91101505092263" height="32.3387335782229" rx="2" style="stroke: gainsboro; fill: white;"/><g><rect x="675.0889849490784" y="565.6612664217771" width="220.91101505092263" height="30.3387335782229" rx="2" style="fill: paleturquoise;"/><text fill="black" x="675.0889849490784" y="565.6612664217771" style="shape-inside: url(#rect77); text-align: center;">(GO0097300, representative) programmed necrotic cell death</text></g></g></g></svg>